<?xml version="1.0" encoding="UTF-8" standalone="no"?>
<!DOCTYPE svg PUBLIC "-//W3C//DTD SVG 1.1//EN" "http://www.w3.org/Graphics/SVG/1.1/DTD/svg11.dtd">
<!-- Generated by Microsoft Visio, SVG Export Component Communication.svg Page-1 -->
<svg xmlns="http://www.w3.org/2000/svg" xmlns:xlink="http://www.w3.org/1999/xlink" xmlns:ev="http://www.w3.org/2001/xml-events"
		xmlns:v="http://schemas.microsoft.com/visio/2003/SVGExtensions/" width="8.26772in" height="11.6929in"
		viewBox="0 0 595.276 841.89" xml:space="preserve" color-interpolation-filters="sRGB" class="st26">
	<v:documentProperties v:langID="1031" v:metric="true" v:viewMarkup="false">
		<v:userDefs>
			<v:ud v:nameU="msvNoAutoConnect" v:val="VT0(1):26"/>
		</v:userDefs>
	</v:documentProperties>

	<style type="text/css">
	<![CDATA[
		.st1 {fill:#3999c6;stroke:none;stroke-linecap:butt;stroke-width:0.75}
		.st2 {fill:#59b4d9;stroke:none;stroke-linecap:butt;stroke-width:0.75}
		.st3 {fill:#ffffff;stroke:none;stroke-linecap:butt;stroke-width:0.75}
		.st4 {fill:#7fba00;stroke:none;stroke-linecap:butt;stroke-width:0.75}
		.st5 {fill:#b8d432;stroke:none;stroke-linecap:butt;stroke-width:0.75}
		.st6 {fill:none;stroke:none;stroke-linecap:round;stroke-linejoin:round;stroke-width:0.75}
		.st7 {fill:#000000;font-family:Calibri;font-size:1.00001em}
		.st8 {fill:#a0a1a2;stroke:none;stroke-linecap:butt;stroke-width:12.24}
		.st9 {fill:#7a7a7a;stroke:none;stroke-linecap:butt;stroke-width:12.24}
		.st10 {fill:#3e3e3e;stroke:none;stroke-linecap:butt;stroke-width:12.24}
		.st11 {fill:#e5e5e5;stroke:none;stroke-linecap:butt;stroke-width:12.24}
		.st12 {fill:#0070c9;stroke:none;stroke-linecap:butt;stroke-width:12.24}
		.st13 {fill:#000e92;stroke:none;stroke-linecap:butt;stroke-width:12.24}
		.st14 {fill:#ffffff;stroke:none;stroke-linecap:butt;stroke-width:12.24}
		.st15 {fill:#ffffff;fill-opacity:0.25;stroke:none;stroke-linecap:butt;stroke-width:12.24}
		.st16 {fill:#3e3e3e;fill-opacity:0.2;stroke:none;stroke-linecap:butt;stroke-width:12.24}
		.st17 {fill:#00188f;stroke:none;stroke-linecap:butt;stroke-width:0.772727}
		.st18 {font-size:1em}
		.st19 {fill:#7fba00;stroke:none;stroke-linecap:butt;stroke-width:12.24}
		.st20 {fill:#59b4d9;stroke:none;stroke-linecap:butt;stroke-width:12.24}
		.st21 {fill:#ffffff;stroke:#000000;stroke-linecap:round;stroke-linejoin:round;stroke-width:0.75}
		.st22 {marker-end:url(#mrkr13-113);stroke:#000000;stroke-linecap:round;stroke-linejoin:round;stroke-width:0.48}
		.st23 {fill:#000000;fill-opacity:1;stroke:#000000;stroke-opacity:1;stroke-width:0.16}
		.st24 {marker-end:url(#mrkr4-119);stroke:#000000;stroke-linecap:round;stroke-linejoin:round;stroke-width:0.24}
		.st25 {fill:#000000;fill-opacity:1;stroke:#000000;stroke-opacity:1;stroke-width:0.11764705882353}
		.st26 {fill:none;fill-rule:evenodd;font-size:12px;overflow:visible;stroke-linecap:square;stroke-miterlimit:3}
	]]>
	</style>

	<defs id="Markers">
		<g id="lend13">
			<path d="M 3 1 L 0 0 L 3 -1 L 3 1 " style="stroke:none"/>
		</g>
		<marker id="mrkr13-113" class="st23" v:arrowType="13" v:arrowSize="2" v:setback="18.75" refX="-18.75" orient="auto"
				markerUnits="strokeWidth" overflow="visible">
			<use xlink:href="#lend13" transform="scale(-6.25,-6.25) "/>
		</marker>
		<g id="lend4">
			<path d="M 2 1 L 0 0 L 2 -1 L 2 1 " style="stroke:none"/>
		</g>
		<marker id="mrkr4-119" class="st25" v:arrowType="4" v:arrowSize="1" v:setback="15.5" refX="-15.5" orient="auto"
				markerUnits="strokeWidth" overflow="visible">
			<use xlink:href="#lend4" transform="scale(-8.5,-8.5) "/>
		</marker>
	</defs>
	<g v:mID="0" v:index="1" v:groupContext="foregroundPage">
		<title>Page-1</title>
		<v:pageProperties v:drawingScale="0.0393701" v:pageScale="0.0393701" v:drawingUnits="24" v:shadowOffsetX="9"
				v:shadowOffsetY="-9"/>
		<v:layer v:name="Azure" v:index="0"/>
		<v:layer v:name="Flowchart" v:index="1"/>
		<v:layer v:name="Web Container" v:index="2"/>
		<v:layer v:name="Container" v:index="3"/>
		<v:layer v:name="Connector" v:index="4"/>
		<g id="group13-1" transform="translate(266.175,-481.474)" v:mID="13" v:groupContext="group">
			<title>Sheet.13</title>
			<g id="group1-2" transform="translate(7.99361E-15,-21.0314)" v:mID="1" v:groupContext="group">
				<title>Sheet.1</title>
				<g id="shape2-3" v:mID="2" v:groupContext="shape">
					<title>Sheet.2</title>
					<path d="M0 774.03 L0 831.15 C0 837.08 13.27 841.89 29.65 841.89 L29.65 774.03 C29.65 774.03 0 774.03 0 774.03
								 Z" class="st1"/>
				</g>
				<g id="shape3-5" v:mID="3" v:groupContext="shape" transform="translate(29.2413,-0.00158181)">
					<title>Sheet.3</title>
					<path d="M0 841.89 L0.41 841.89 C16.78 841.89 30.05 837.08 30.05 831.15 L30.05 774.03 L0 774.03 L0 841.89 Z"
							class="st2"/>
				</g>
				<g id="shape4-7" v:mID="4" v:groupContext="shape" transform="translate(0,-57.1222)">
					<title>Sheet.4</title>
					<path d="M59.3 831.15 C59.3 837.08 46.02 841.89 29.65 841.89 C13.27 841.89 0 837.08 0 831.15 C0 825.22 13.27
								 820.42 29.65 820.42 C46.02 820.42 59.3 825.22 59.3 831.15 Z" class="st3"/>
				</g>
				<g id="shape5-9" v:mID="5" v:groupContext="shape" transform="translate(6.0599,-61.3931)">
					<title>Sheet.5</title>
					<path d="M47.17 834.8 C47.17 838.72 36.61 841.89 23.59 841.89 C10.56 841.89 0 838.72 0 834.8 C0 830.89 10.56
								 827.72 23.59 827.72 C36.61 827.72 47.17 830.89 47.17 834.8 Z" class="st4"/>
				</g>
				<g id="shape6-11" v:mID="6" v:groupContext="shape" transform="translate(6.06148,-64.1486)">
					<title>Sheet.6</title>
					<path d="M42.23 841.89 C45.32 840.69 47.17 839.19 47.17 837.56 C47.17 833.65 36.61 830.48 23.59 830.48 C10.56
								 830.48 0 833.65 0 837.56 C0 839.19 1.86 840.69 4.94 841.89 C9.26 840.22 15.99 839.14 23.59 839.14
								 C31.18 839.14 37.92 840.22 42.23 841.89 Z" class="st5"/>
				</g>
				<g id="shape7-13" v:mID="7" v:groupContext="shape" transform="translate(8.0941,-19.5575)">
					<title>Sheet.7</title>
					<path d="M40.72 839.9 C39.13 841.23 36.98 841.89 34.19 841.89 L24.87 841.89 L24.87 817.59 L33.71 817.59 C36.49
								 817.59 38.62 818.1 40.09 819.15 C41.46 820.14 42.15 821.52 42.15 823.28 C42.15 824.69 41.65 825.88
								 40.62 826.93 C39.75 827.8 38.71 828.4 37.41 828.76 L37.41 828.81 C39.15 829.03 40.56 829.69 41.61
								 830.8 C42.6 831.85 43.11 833.14 43.11 834.63 C43.11 836.85 42.3 838.59 40.72 839.9 ZM18.01 838.47
								 C15.68 840.75 12.53 841.89 8.6 841.89 L0 841.89 L0 817.59 L8.6 817.59 C17.23 817.59 21.55 821.52
								 21.55 829.42 C21.55 833.2 20.38 836.22 18.01 838.47 Z" class="st3"/>
				</g>
				<g id="shape8-15" v:mID="8" v:groupContext="shape" transform="translate(13.5513,-23.9944)">
					<title>Sheet.8</title>
					<path d="M2.7 826.46 L0 826.46 L0 841.89 L2.73 841.89 C5.12 841.89 6.98 841.14 8.36 839.7 C9.67 838.26 10.34
								 836.35 10.34 833.92 C10.34 831.65 9.67 829.85 8.39 828.52 C7.04 827.15 5.15 826.46 2.7 826.46 Z"
							class="st1"/>
				</g>
				<g id="shape9-17" v:mID="9" v:groupContext="shape" transform="translate(38.4173,-34.0879)">
					<title>Sheet.9</title>
					<path d="M5.06 841.08 C5.72 840.51 6.05 839.76 6.05 838.83 C6.05 837.03 4.73 836.13 2.06 836.13 L0 836.13 L0
								 841.89 L2.42 841.89 C3.53 841.89 4.43 841.61 5.06 841.08 Z" class="st2"/>
				</g>
				<g id="shape10-19" v:mID="10" v:groupContext="shape" transform="translate(38.4126,-23.6085)">
					<title>Sheet.10</title>
					<path d="M5.96 836.32 C5.24 835.78 4.26 835.48 2.99 835.48 L0 835.48 L0 841.89 L2.97 841.89 C4.23 841.89 5.24
								 841.59 5.99 840.99 C6.68 840.39 7.04 839.62 7.04 838.59 C7.04 837.63 6.68 836.86 5.96 836.32 Z"
							class="st2"/>
				</g>
			</g>
			<g id="shape12-21" v:mID="12" v:groupContext="shape" transform="translate(-2.83465,0)">
				<title>Sheet.12</title>
				<desc>Database</desc>
				<v:textBlock v:margins="rect(4,4,4,4)" v:tabSpace="42.5197"/>
				<v:textRect cx="32.5984" cy="834.478" width="65.2" height="14.8239"/>
				<rect x="0" y="827.066" width="65.1968" height="14.8239" class="st6"/>
				<text x="9.79" y="838.08" class="st7" v:langID="1031"><v:paragraph v:horizAlign="1"/><v:tabList/>Database</text>			</g>
		</g>
		<g id="group57-24" transform="translate(43.937,-658.572)" v:mID="57" v:groupContext="group">
			<title>Sheet.57</title>
			<g id="group41-25" transform="translate(2.76233,-25.5118)" v:mID="41" v:groupContext="group">
				<title>Sheet.41</title>
				<g id="shape42-26" v:mID="42" v:groupContext="shape" transform="translate(22.3384,-44.6767)">
					<title>Sheet.42</title>
					<path d="M0.18 841.89 L21.28 833.45 L21.28 808.47 L0 817.09 L0.18 841.89 Z" class="st8"/>
				</g>
				<g id="shape43-28" v:mID="43" v:groupContext="shape" transform="translate(43.6214,-36.058)">
					<title>Sheet.43</title>
					<path d="M20.93 807.41 L0 799.85 L0 800.2 L0 841.89 L20.93 833.27 L20.93 807.41 Z" class="st9"/>
				</g>
				<g id="shape44-30" v:mID="44" v:groupContext="shape" transform="translate(22.5143,-36.058)">
					<title>Sheet.44</title>
					<path d="M42.04 833.27 L21.11 841.89 L0 833.27 L21.11 825 L42.04 833.27 Z" class="st10"/>
				</g>
				<g id="shape45-32" v:mID="45" v:groupContext="shape" transform="translate(0,-8.61874)">
					<title>Sheet.45</title>
					<path d="M0 841.89 L21.28 833.62 L21.28 808.47 L0 819.2 L0 841.89 Z" class="st8"/>
				</g>
				<g id="shape46-34" v:mID="46" v:groupContext="shape" transform="translate(21.1071,3.41061E-13)">
					<title>Sheet.46</title>
					<path d="M21.11 809.35 L0.18 799.85 L0.18 800.2 L0 841.89 L21.11 833.27 L21.11 809.35 Z" class="st9"/>
				</g>
				<g id="shape47-36" v:mID="47" v:groupContext="shape">
					<title>Sheet.47</title>
					<path d="M42.21 833.27 L21.28 841.89 L0 833.27 L21.28 825 L42.21 833.27 Z" class="st10"/>
				</g>
				<g id="shape48-38" v:mID="48" v:groupContext="shape" transform="translate(45.7321,-8.61874)">
					<title>Sheet.48</title>
					<path d="M0 841.89 L21.28 833.62 L21.28 808.47 L0 818.14 L0 841.89 Z" class="st11"/>
				</g>
				<g id="shape49-40" v:mID="49" v:groupContext="shape" transform="translate(66.8392,3.41061E-13)">
					<title>Sheet.49</title>
					<path d="M21.11 809.35 L0.18 799.85 L0.18 800.2 L0 841.89 L21.11 833.27 L21.11 809.35 Z" class="st8"/>
				</g>
				<g id="shape50-42" v:mID="50" v:groupContext="shape" transform="translate(45.7321,0)">
					<title>Sheet.50</title>
					<path d="M42.21 833.27 L21.28 841.89 L0 833.27 L21.28 825 L42.21 833.27 Z" class="st12"/>
				</g>
				<g id="shape51-44" v:mID="51" v:groupContext="shape" transform="translate(52.7678,-11.7848)">
					<title>Sheet.51</title>
					<path d="M26.03 841.89 L2.29 841.89 C1.06 841.89 0 840.83 0 839.6 L0 824.3 C0 823.07 0.88 822.19 2.11 822.19
								 L25.86 822.19 C27.09 822.19 28.14 823.25 28.14 824.48 L28.14 839.6 C28.32 840.83 27.26 841.89 26.03
								 841.89 Z" class="st13"/>
				</g>
				<g id="shape52-46" v:mID="52" v:groupContext="shape" transform="translate(55.0544,-13.5437)">
					<title>Sheet.52</title>
					<path d="M7.92 841.89 L0 833.97 L8.09 826.24 L9.67 827.82 L2.99 833.97 L9.32 840.48 L7.92 841.89 Z"
							class="st14"/>
				</g>
				<g id="shape53-48" v:mID="53" v:groupContext="shape" transform="translate(68.9499,-13.5437)">
					<title>Sheet.53</title>
					<path d="M1.58 841.89 L9.5 833.97 L1.41 826.24 L0 827.82 L6.51 833.97 L0.18 840.48 L1.58 841.89 Z" class="st14"/>
				</g>
				<g id="shape54-50" v:mID="54" v:groupContext="shape" transform="translate(52.9437,-11.7848)">
					<title>Sheet.54</title>
					<path d="M18.47 822.19 L1.93 822.19 C0.7 822.19 0 823.42 0 824.3 L0 839.78 C0 840.66 0.88 841.89 2.11 841.89
								 L8.44 841.89 L18.47 822.19 Z" class="st15"/>
				</g>
				<g id="shape55-52" v:mID="55" v:groupContext="shape" transform="translate(54.7026,-31.4848)">
					<title>Sheet.55</title>
					<path d="M0 841.89 L11.61 839.08 L23.92 841.89 L0 841.89 Z" class="st16"/>
				</g>
			</g>
			<g id="shape56-54" v:mID="56" v:groupContext="shape">
				<title>Sheet.56</title>
				<desc>Nodes</desc>
				<v:textBlock v:margins="rect(4,4,4,4)" v:tabSpace="42.5197"/>
				<v:textRect cx="45.3543" cy="831.969" width="90.71" height="19.8425"/>
				<rect x="0" y="822.047" width="90.7087" height="19.8425" class="st6"/>
				<text x="29.83" y="835.57" class="st7" v:langID="1031"><v:paragraph v:horizAlign="1"/><v:tabList/>Nodes</text>			</g>
		</g>
		<g id="group137-57" transform="translate(471.091,-656.185)" v:mID="137" v:groupContext="group">
			<title>Sheet.137</title>
			<g id="group132-58" transform="translate(3.54331,-27.0009)" v:mID="132" v:groupContext="group">
				<title>Sheet.132</title>
				<g id="group133-59" v:mID="133" v:groupContext="group">
					<title>Sheet.133</title>
				</g>
				<g id="shape134-60" v:mID="134" v:groupContext="shape">
					<title>Sheet.134</title>
					<path d="M38.98 763.94 C17.4 763.94 0 781.34 0 802.91 C0 824.49 17.4 841.89 38.98 841.89 C60.55 841.89 77.95
								 824.49 77.95 802.91 C77.95 781.34 60.55 763.94 38.98 763.94 ZM72.34 800.2 L64.72 800.2 C64.35 794.21
								 63.08 788.59 60.92 783.69 C62.18 782.95 63.45 782.24 64.55 781.34 C68.91 786.41 71.81 792.94 72.34
								 800.2 ZM61.47 778.07 C60.73 778.63 59.83 779.15 58.94 779.71 C57.49 777.17 55.67 774.8 53.85 772.82
								 C56.57 774.27 59.1 775.89 61.47 778.07 ZM41.69 771 C46.94 772.09 51.66 775.91 54.93 781.53 C50.95
								 783.16 46.41 784.24 41.69 784.61 L41.69 771 ZM41.69 789.12 C47.13 788.75 52.4 787.67 56.93 785.49
								 C58.75 789.84 59.83 794.74 60.2 799.99 L41.72 799.99 L41.69 789.12 ZM60.2 805.63 C59.83 811.06 58.75
								 816.15 56.75 820.32 C52.21 818.32 47.15 816.86 41.69 816.52 L41.69 805.47 L60.18 805.47 L60.18 805.63
								 L60.2 805.63 ZM17.77 805.63 L36.26 805.63 L36.26 816.68 C30.83 817.05 25.55 818.13 21.02 820.32
								 C19.22 815.97 18.12 810.9 17.77 805.63 ZM17.77 800.2 C18.14 794.76 19.22 789.68 21.23 785.51 C25.76
								 787.51 30.83 788.96 36.28 789.31 L36.28 800.36 L17.8 800.36 L17.8 800.2 L17.77 800.2 ZM36.26 771
								 L36.26 784.61 C31.54 784.24 27.19 783.16 23.21 781.34 C26.48 775.89 31.17 772.09 36.26 771 ZM24.1
								 772.82 C22.29 774.64 20.65 776.81 19.2 779.36 C18.3 778.81 17.57 778.28 16.85 777.73 C19.04 775.89
								 21.57 774.09 24.1 772.82 ZM13.58 780.97 C14.67 781.87 15.93 782.61 17.04 783.32 C14.85 788.23 13.4
								 794.03 13.05 800.2 L5.43 800.2 C6.15 792.94 9.05 786.22 13.58 780.97 ZM13.24 805.63 C13.61 811.62
								 14.87 817.23 17.04 822.14 C15.77 822.87 14.5 823.59 13.4 824.49 C9.05 819.24 6.15 812.7 5.59 805.63
								 L13.24 805.63 ZM16.48 827.75 C17.22 827.2 18.12 826.67 19.02 826.12 C20.47 828.65 22.29 831.02 24.1
								 833 C21.39 831.58 18.86 829.76 16.48 827.75 ZM23.02 824.14 C27 822.51 31.54 821.42 36.26 821.05
								 L36.26 834.66 C30.99 833.74 26.48 829.94 23.02 824.14 ZM41.69 834.82 L41.69 821.22 C46.41 821.58
								 50.76 822.67 54.75 824.49 C51.5 829.94 46.78 833.74 41.69 834.82 ZM58.75 826.49 C59.65 827.04 60.39
								 827.57 61.1 828.12 C58.91 830.13 56.38 831.74 53.85 833.03 C55.67 831.21 57.3 828.84 58.75 826.49
								 ZM64.37 824.85 C63.29 823.96 62.02 823.22 60.92 822.51 C63.1 817.6 64.55 811.8 64.9 805.63 L72.7
								 805.63 C71.81 812.88 68.91 819.6 64.37 824.85 Z" class="st17"/>
				</g>
			</g>
			<g id="shape135-62" v:mID="135" v:groupContext="shape">
				<title>Sheet.135</title>
				<desc>Webbrowser</desc>
				<v:textBlock v:margins="rect(4,4,4,4)" v:tabSpace="42.5197"/>
				<v:textRect cx="42.5197" cy="830.551" width="85.04" height="22.6772"/>
				<rect x="0" y="819.213" width="85.0394" height="22.6772" class="st6"/>
				<text x="10.92" y="834.15" class="st7" v:langID="1031"><v:paragraph v:horizAlign="1"/><v:tabList/>Webbrowser</text>			</g>
		</g>
		<g id="group139-65" transform="translate(258.547,-655.142)" v:mID="139" v:groupContext="group">
			<title>Sheet.139</title>
			<g id="group126-66" transform="translate(14.3392,-28.1786)" v:mID="126" v:groupContext="group">
				<title>Sheet.126</title>
				<g id="group127-67" v:mID="127" v:groupContext="group">
					<title>Sheet.127</title>
				</g>
				<g id="group128-68" v:mID="128" v:groupContext="group">
					<title>Sheet.128</title>
					<g id="shape129-69" v:mID="129" v:groupContext="shape" transform="translate(22.0489,0)">
						<title>Sheet.129</title>
						<path d="M18.62 841.89 C8.37 841.89 0 833.52 0 823.27 C0 813.01 8.37 804.64 18.62 804.64 C28.88 804.64 37.25
									 813.01 37.25 823.27 C37.25 833.54 28.88 841.89 18.62 841.89 ZM14.06 832.22 C15.39 836.78 17.3
									 839.07 18.62 839.07 C19.95 839.07 22.05 836.97 23.18 832.22 C21.66 832.02 20.14 831.83 18.62
									 831.83 C17.1 831.83 15.58 832.02 14.06 832.22 ZM7.21 833.93 C8.93 835.83 11.02 837.16 13.29
									 837.91 C12.35 836.39 11.77 834.68 11.19 832.58 C9.7 832.96 8.37 833.35 7.21 833.93 ZM26.22 832.6
									 C25.64 834.7 24.9 836.41 24.12 837.93 C26.42 837.16 28.49 835.64 30.2 833.76 C29.07 833.35 27.74
									 832.96 26.22 832.6 ZM3.04 824.62 C3.23 827.08 3.98 829.18 5.33 831.47 C6.85 830.7 8.56 830.14
									 10.47 829.76 C10.08 828.04 10.08 826.33 9.89 824.62 L3.04 824.62 ZM26.8 829.92 C28.71 830.31
									 30.61 830.87 31.94 831.64 C33.27 829.35 34.04 827.27 34.23 824.79 L27.21 824.79 C27.36 826.5
									 27.16 828.04 26.8 829.92 ZM12.93 824.62 C12.93 826.14 13.12 827.66 13.32 829.18 C15.03 828.98
									 16.93 828.79 18.65 828.79 C20.36 828.79 22.07 828.98 23.98 829.18 C24.17 827.66 24.36 826.14
									 24.36 824.62 L12.93 824.62 ZM34.4 821.58 C34.21 818.92 33.27 816.44 31.75 814.17 C30.23 814.94
									 28.51 815.5 26.8 815.88 C27.19 817.6 27.38 819.5 27.38 821.58 L34.4 821.58 ZM24.51 821.58 C24.51
									 819.86 24.32 817.96 23.93 816.44 C22.22 816.63 20.5 816.83 18.79 816.83 C17.08 816.83 15.37
									 816.63 13.65 816.44 C13.27 817.96 13.07 819.86 13.07 821.58 L24.51 821.58 ZM10.06 821.58 C10.06
									 819.67 10.25 817.77 10.64 815.88 C8.73 815.5 7.21 814.94 5.69 814.17 C4.17 816.46 3.23 818.92
									 2.85 821.58 L10.06 821.58 ZM14.26 813.79 C15.78 813.98 17.3 814.17 18.82 814.17 C20.34 814.17
									 21.86 813.98 23.38 813.79 C22.05 809.42 20.14 807.51 18.82 807.51 C17.3 807.51 15.39 809.42
									 14.26 813.79 ZM7.6 812.07 C8.73 812.46 10.06 813.01 11.41 813.21 C11.99 811.3 12.54 809.78 13.51
									 808.45 C11.22 809.23 9.31 810.36 7.6 812.07 ZM24.12 808.45 C24.9 809.78 25.64 811.49 26.22 813.21
									 C27.55 812.82 28.88 812.43 30.03 812.07 C28.13 810.36 26.22 809.23 24.12 808.45 Z"
								class="st17"/>
					</g>
					<g id="shape130-71" v:mID="130" v:groupContext="shape" transform="translate(22.6279,-0.771953)">
						<title>Sheet.130</title>
						<path d="M18.04 805.8 C8.15 805.8 0 813.98 0 823.85 C0 833.71 8.18 841.89 18.04 841.89 C27.91 841.89 36.09
									 833.71 36.09 823.85 C36.09 813.98 28.1 805.8 18.04 805.8 ZM18.04 840.2 C15.95 840.2 13.87 837.16
									 12.71 832.41 C14.43 832.22 16.33 832.02 18.04 832.02 C19.76 832.02 21.66 832.22 23.38 832.41
									 C22.22 837.35 20.12 840.2 18.04 840.2 ZM18.04 830.33 C16.14 830.33 14.23 830.53 12.35 830.72
									 C11.97 828.81 11.77 827.1 11.77 824.83 L24.51 824.83 C24.51 827.13 24.32 828.81 23.93 830.72
									 C22.02 830.5 20.12 830.33 18.04 830.33 ZM18.04 807.71 C19.95 807.71 22.02 810.55 23.38 815.11
									 C21.66 815.31 19.95 815.5 18.04 815.5 C16.33 815.5 14.43 815.31 12.71 815.11 C14.04 810.36 16.14
									 807.71 18.04 807.71 ZM18.04 817.02 C19.95 817.02 21.86 816.83 23.74 816.63 C24.12 818.54 24.32
									 820.61 24.51 822.9 L11.77 822.9 C11.77 820.61 12.16 818.35 12.54 816.63 C14.23 817.02 16.14
									 817.02 18.04 817.02 ZM10.06 822.9 L1.69 822.9 C1.88 819.67 3.21 816.63 4.92 814.36 C6.63 815.14
									 8.54 815.88 10.81 816.27 C10.42 818.18 10.23 820.25 10.04 822.54 L10.06 822.9 ZM10.06 824.81
									 C10.06 827.1 10.25 828.98 10.64 830.89 C8.35 831.28 6.27 832.02 4.56 832.8 C2.85 830.33 1.91
									 827.66 1.91 824.62 L10.08 824.62 L10.08 824.81 L10.06 824.81 ZM26.22 824.81 L34.4 824.81 C34.21
									 827.85 33.27 830.5 31.75 832.99 C30.03 832.22 27.94 831.47 25.67 831.08 C26.03 828.98 26.22
									 827.27 26.22 824.81 ZM26.22 822.9 C26.22 820.61 25.84 818.15 25.45 816.25 C27.55 815.86 29.62
									 815.11 31.34 814.34 C33.05 816.8 34.18 819.84 34.38 822.88 L26.22 822.88 L26.22 822.49 L26.22
									 822.9 ZM30.2 813.04 C28.68 813.81 26.97 814.36 25.06 814.75 C24.29 812.1 23.35 809.81 22.02
									 808.29 C25.26 809.03 28.1 810.75 30.2 813.04 ZM14.23 808.09 C12.91 809.61 11.94 811.9 11.19
									 814.56 C9.29 814.17 7.57 813.62 6.06 812.85 C8.15 810.75 11 809.03 14.23 808.09 ZM5.69 834.51
									 C7.21 833.74 9.12 833.18 11.02 832.8 C11.8 835.83 12.93 838.13 14.06 839.82 C10.83 838.87 7.79
									 836.97 5.69 834.51 ZM22.02 839.82 C23.35 838.1 24.49 835.83 25.26 832.8 C27.36 833.18 29.07
									 833.74 30.59 834.51 C28.49 836.97 25.45 838.87 22.02 839.82 Z" class="st17"/>
					</g>
					<g id="shape131-73" v:mID="131" v:groupContext="shape" transform="translate(0,-0.940817)">
						<title>Sheet.131</title>
						<path d="M19.01 823.07 C19.4 812.43 27.55 803.7 38.02 802.35 L38.02 767.78 C38.02 765.68 36.31 763.97 34.21
									 763.97 L3.81 763.97 C1.71 763.97 0 765.68 0 767.78 L0 841.89 L28.49 841.89 C25.64 839.98 23.35
									 837.33 21.64 834.29 L5.67 834.29 L5.67 830.48 L19.93 830.48 C19.54 829.35 19.35 828.02 19.15
									 826.67 L5.67 826.67 L5.67 822.86 L18.96 822.86 L18.96 823.07 L19.01 823.07 ZM5.72 775.57 L32.3
									 775.57 L32.3 779.39 L5.72 779.39 L5.72 775.57 Z" class="st17"/>
					</g>
				</g>
			</g>
			<g id="shape138-75" v:mID="138" v:groupContext="shape">
				<title>Sheet.138</title>
				<desc>Coordinator/ Webserver</desc>
				<v:textBlock v:margins="rect(4,4,4,4)" v:tabSpace="42.5197"/>
				<v:textRect cx="37.2756" cy="831.26" width="74.56" height="21.2598"/>
				<rect x="0" y="820.63" width="74.5512" height="21.2598" class="st6"/>
				<text x="5.52" y="827.66" class="st7" v:langID="1031"><v:paragraph v:horizAlign="1"/><v:tabList/>Coordinator/ <tspan
							x="10.59" dy="1.2em" class="st18">Webserver</tspan></text>			</g>
		</g>
		<g id="group154-79" transform="translate(357.732,-655.512)" v:mID="154" v:groupContext="group">
			<title>Sheet.154</title>
			<g id="group144-80" transform="translate(7.08661,-29.8516)" v:mID="144" v:groupContext="group">
				<title>Sheet.144</title>
				<g id="group145-81" v:mID="145" v:groupContext="group">
					<title>Sheet.145</title>
					<g id="shape146-82" v:mID="146" v:groupContext="shape" transform="translate(23.2958,2.27374E-13)">
						<title>Sheet.146</title>
						<path d="M34.95 809.27 C37.21 809.27 39.32 809.7 41.3 810.56 C43.28 811.43 45 812.59 46.47 814.06 C47.94
									 815.53 49.1 817.25 49.96 819.23 C50.83 821.21 51.26 823.32 51.26 825.58 C51.26 827.84 50.82
									 829.96 49.96 831.93 C49.1 833.91 47.94 835.63 46.47 837.1 C45 838.57 43.28 839.74 41.3 840.6
									 C39.32 841.46 37.2 841.89 34.95 841.89 L16.31 841.89 C14.05 841.89 11.93 841.46 9.96 840.6 C7.98
									 839.74 6.26 838.57 4.79 837.1 C3.32 835.63 2.15 833.91 1.29 831.93 C0.43 829.95 0 827.84 0 825.58
									 C0 823.33 0.43 821.21 1.29 819.23 C2.15 817.25 3.32 815.53 4.79 814.06 C6.26 812.59 7.98 811.43
									 9.96 810.56 C11.94 809.7 14.05 809.27 16.31 809.27 L18.64 809.27 L18.64 813.93 C16.79 813.93
									 15.03 814.14 13.34 814.57 C11.66 814.99 10.17 815.67 8.88 816.61 C7.6 817.54 6.57 818.74 5.81
									 820.21 C5.04 821.68 4.66 823.47 4.66 825.58 C4.66 827.18 4.97 828.69 5.59 830.09 C6.21 831.5
									 7.05 832.73 8.1 833.79 C9.16 834.84 10.39 835.68 11.8 836.3 C13.2 836.92 14.71 837.23 16.31
									 837.23 L34.95 837.23 C36.55 837.23 38.05 836.92 39.46 836.3 C40.87 835.68 42.1 834.84 43.16
									 833.79 C44.21 832.73 45.05 831.5 45.67 830.09 C46.29 828.69 46.6 827.18 46.6 825.58 C46.6 823.47
									 46.22 821.68 45.45 820.21 C44.69 818.74 43.66 817.54 42.37 816.61 C41.09 815.67 39.6 814.99
									 37.92 814.57 C36.23 814.14 34.46 813.93 32.62 813.93 L32.62 809.27 L34.95 809.27 Z"
								class="st19"/>
					</g>
					<g id="shape147-84" v:mID="147" v:groupContext="shape" transform="translate(0,-13.9783)">
						<title>Sheet.147</title>
						<path d="M32.62 841.89 L32.62 837.23 C34.46 837.23 36.23 837.02 37.91 836.59 C39.6 836.17 41.09 835.49 42.37
									 834.55 C43.66 833.62 44.68 832.42 45.45 830.95 C46.21 829.48 46.59 827.69 46.59 825.58 C46.59
									 823.98 46.28 822.48 45.67 821.07 C45.05 819.66 44.21 818.43 43.15 817.37 C42.1 816.32 40.87
									 815.48 39.46 814.86 C38.05 814.24 36.55 813.93 34.95 813.93 L16.31 813.93 C14.71 813.93 13.2
									 814.24 11.8 814.86 C10.39 815.48 9.16 816.32 8.1 817.37 C7.05 818.43 6.21 819.66 5.59 821.07
									 C4.97 822.48 4.66 823.98 4.66 825.58 C4.66 827.69 5.04 829.48 5.81 830.95 C6.57 832.42 7.6 833.62
									 8.88 834.55 C10.17 835.49 11.66 836.17 13.34 836.59 C15.03 837.02 16.79 837.23 18.64 837.23
									 L18.64 841.89 L16.31 841.89 C14.05 841.89 11.93 841.46 9.96 840.6 C7.98 839.73 6.25 838.57 4.79
									 837.1 C3.32 835.63 2.15 833.91 1.29 831.93 C0.43 829.95 0 827.84 0 825.58 C0 823.33 0.43 821.21
									 1.29 819.23 C2.15 817.25 3.32 815.53 4.79 814.06 C6.26 812.59 7.98 811.43 9.96 810.56 C11.94
									 809.7 14.05 809.27 16.31 809.27 L34.95 809.27 C37.2 809.27 39.32 809.7 41.3 810.56 C43.28 811.43
									 45 812.59 46.47 814.06 C47.94 815.53 49.1 817.25 49.96 819.23 C50.82 821.21 51.26 823.33 51.26
									 825.58 C51.26 827.84 50.82 829.96 49.96 831.93 C49.1 833.91 47.94 835.63 46.47 837.1 C45 838.57
									 43.28 839.74 41.3 840.6 C39.32 841.46 37.2 841.89 34.95 841.89 L32.62 841.89 L32.62 841.89 Z"
								class="st20"/>
					</g>
				</g>
			</g>
			<g id="shape153-86" v:mID="153" v:groupContext="shape">
				<title>Sheet.153</title>
				<desc>Grpc/REST Communication</desc>
				<v:textBlock v:margins="rect(4,4,4,4)" v:tabSpace="42.5197"/>
				<v:textRect cx="45.3543" cy="831.26" width="90.71" height="21.2598"/>
				<rect x="0" y="820.63" width="90.7087" height="21.2598" class="st6"/>
				<text x="19.6" y="827.66" class="st7" v:langID="1031"><v:paragraph v:horizAlign="1"/><v:tabList/>Grpc/REST <tspan
							x="6.61" dy="1.2em" class="st18">Communication</tspan></text>			</g>
		</g>
		<g id="group156-90" transform="translate(154.657,-658.572)" v:mID="156" v:groupContext="group">
			<title>Sheet.156</title>
			<g id="group149-91" transform="translate(8.07874,-28.5061)" v:mID="149" v:groupContext="group">
				<title>Sheet.149</title>
				<g id="group150-92" v:mID="150" v:groupContext="group">
					<title>Sheet.150</title>
					<g id="shape151-93" v:mID="151" v:groupContext="shape" transform="translate(23.2958,2.27374E-13)">
						<title>Sheet.151</title>
						<path d="M34.95 809.27 C37.21 809.27 39.32 809.7 41.3 810.56 C43.28 811.43 45 812.59 46.47 814.06 C47.94
									 815.53 49.1 817.25 49.96 819.23 C50.83 821.21 51.26 823.32 51.26 825.58 C51.26 827.84 50.82
									 829.96 49.96 831.93 C49.1 833.91 47.94 835.63 46.47 837.1 C45 838.57 43.28 839.74 41.3 840.6
									 C39.32 841.46 37.2 841.89 34.95 841.89 L16.31 841.89 C14.05 841.89 11.93 841.46 9.96 840.6 C7.98
									 839.74 6.26 838.57 4.79 837.1 C3.32 835.63 2.15 833.91 1.29 831.93 C0.43 829.95 0 827.84 0 825.58
									 C0 823.33 0.43 821.21 1.29 819.23 C2.15 817.25 3.32 815.53 4.79 814.06 C6.26 812.59 7.98 811.43
									 9.96 810.56 C11.94 809.7 14.05 809.27 16.31 809.27 L18.64 809.27 L18.64 813.93 C16.79 813.93
									 15.03 814.14 13.34 814.57 C11.66 814.99 10.17 815.67 8.88 816.61 C7.6 817.54 6.57 818.74 5.81
									 820.21 C5.04 821.68 4.66 823.47 4.66 825.58 C4.66 827.18 4.97 828.69 5.59 830.09 C6.21 831.5
									 7.05 832.73 8.1 833.79 C9.16 834.84 10.39 835.68 11.8 836.3 C13.2 836.92 14.71 837.23 16.31
									 837.23 L34.95 837.23 C36.55 837.23 38.05 836.92 39.46 836.3 C40.87 835.68 42.1 834.84 43.16
									 833.79 C44.21 832.73 45.05 831.5 45.67 830.09 C46.29 828.69 46.6 827.18 46.6 825.58 C46.6 823.47
									 46.22 821.68 45.45 820.21 C44.69 818.74 43.66 817.54 42.37 816.61 C41.09 815.67 39.6 814.99
									 37.92 814.57 C36.23 814.14 34.46 813.93 32.62 813.93 L32.62 809.27 L34.95 809.27 Z"
								class="st19"/>
					</g>
					<g id="shape152-95" v:mID="152" v:groupContext="shape" transform="translate(0,-13.9783)">
						<title>Sheet.152</title>
						<path d="M32.62 841.89 L32.62 837.23 C34.46 837.23 36.23 837.02 37.91 836.59 C39.6 836.17 41.09 835.49 42.37
									 834.55 C43.66 833.62 44.68 832.42 45.45 830.95 C46.21 829.48 46.59 827.69 46.59 825.58 C46.59
									 823.98 46.28 822.48 45.67 821.07 C45.05 819.66 44.21 818.43 43.15 817.37 C42.1 816.32 40.87
									 815.48 39.46 814.86 C38.05 814.24 36.55 813.93 34.95 813.93 L16.31 813.93 C14.71 813.93 13.2
									 814.24 11.8 814.86 C10.39 815.48 9.16 816.32 8.1 817.37 C7.05 818.43 6.21 819.66 5.59 821.07
									 C4.97 822.48 4.66 823.98 4.66 825.58 C4.66 827.69 5.04 829.48 5.81 830.95 C6.57 832.42 7.6 833.62
									 8.88 834.55 C10.17 835.49 11.66 836.17 13.34 836.59 C15.03 837.02 16.79 837.23 18.64 837.23
									 L18.64 841.89 L16.31 841.89 C14.05 841.89 11.93 841.46 9.96 840.6 C7.98 839.73 6.25 838.57 4.79
									 837.1 C3.32 835.63 2.15 833.91 1.29 831.93 C0.43 829.95 0 827.84 0 825.58 C0 823.33 0.43 821.21
									 1.29 819.23 C2.15 817.25 3.32 815.53 4.79 814.06 C6.26 812.59 7.98 811.43 9.96 810.56 C11.94
									 809.7 14.05 809.27 16.31 809.27 L34.95 809.27 C37.2 809.27 39.32 809.7 41.3 810.56 C43.28 811.43
									 45 812.59 46.47 814.06 C47.94 815.53 49.1 817.25 49.96 819.23 C50.82 821.21 51.26 823.33 51.26
									 825.58 C51.26 827.84 50.82 829.96 49.96 831.93 C49.1 833.91 47.94 835.63 46.47 837.1 C45 838.57
									 43.28 839.74 41.3 840.6 C39.32 841.46 37.2 841.89 34.95 841.89 L32.62 841.89 L32.62 841.89 Z"
								class="st20"/>
					</g>
				</g>
			</g>
			<g id="shape155-97" v:mID="155" v:groupContext="shape">
				<title>Sheet.155</title>
				<desc>Grpc Communication</desc>
				<v:textBlock v:margins="rect(4,4,4,4)" v:tabSpace="42.5197"/>
				<v:textRect cx="45.3543" cy="829.559" width="90.71" height="24.6614"/>
				<rect x="0" y="817.228" width="90.7087" height="24.6614" class="st6"/>
				<text x="33.79" y="825.96" class="st7" v:langID="1031"><v:paragraph v:horizAlign="1"/><v:tabList/>Grpc<v:lf/><tspan
							x="6.61" dy="1.2em" class="st18">Communication</tspan></text>			</g>
		</g>
		<g id="group163-101" transform="translate(51.0675,-504.655)" v:mID="163" v:groupContext="group">
			<v:custProps>
				<v:cp v:nameU="AssetNumber" v:lbl="Asset Number" v:prompt="" v:type="0" v:format="" v:sortKey="Asset"
						v:invis="false" v:ask="false" v:langID="1033" v:cal="0"/>
				<v:cp v:nameU="SerialNumber" v:lbl="Serial Number" v:prompt="" v:type="0" v:format="" v:sortKey="Asset"
						v:invis="false" v:ask="false" v:langID="1033" v:cal="0"/>
				<v:cp v:nameU="Location" v:lbl="Location" v:prompt="" v:type="0" v:format="" v:sortKey="Asset" v:invis="false"
						v:ask="false" v:langID="1033" v:cal="0"/>
				<v:cp v:nameU="Building" v:lbl="Building" v:prompt="" v:type="0" v:format="" v:sortKey="Asset" v:invis="false"
						v:ask="false" v:langID="1033" v:cal="0"/>
				<v:cp v:nameU="Room" v:lbl="Room" v:prompt="" v:type="0" v:format="" v:sortKey="Asset" v:invis="false"
						v:ask="false" v:langID="1033" v:cal="0"/>
				<v:cp v:nameU="Manufacturer" v:lbl="Manufacturer" v:prompt="" v:type="0" v:format="" v:sortKey="Equipment"
						v:invis="false" v:ask="false" v:langID="1033" v:cal="0"/>
				<v:cp v:nameU="ProductNumber" v:lbl="Product Number" v:prompt="" v:type="0" v:format="" v:sortKey="Equipment"
						v:invis="false" v:ask="false" v:langID="1033" v:cal="0"/>
				<v:cp v:nameU="PartNumber" v:lbl="Part Number" v:prompt="" v:type="0" v:format="" v:sortKey="Equipment"
						v:invis="false" v:ask="false" v:langID="1033" v:cal="0"/>
				<v:cp v:nameU="ProductDescription" v:lbl="Product Description" v:prompt="" v:type="0" v:format=""
						v:sortKey="Equipment" v:invis="false" v:ask="false" v:langID="1033" v:cal="0"/>
				<v:cp v:nameU="NetworkName" v:lbl="Network Name" v:prompt="" v:type="0" v:format="" v:sortKey="Network"
						v:invis="false" v:ask="false" v:langID="1033" v:cal="0"/>
				<v:cp v:nameU="IPAddress" v:lbl="IP Address" v:prompt="" v:type="0" v:format="" v:sortKey="Network" v:invis="false"
						v:ask="false" v:langID="1033" v:cal="0"/>
				<v:cp v:nameU="SubnetMask" v:lbl="Subnet Mask" v:prompt="" v:type="0" v:format="" v:sortKey="Network"
						v:invis="false" v:ask="false" v:langID="1033" v:cal="0"/>
				<v:cp v:nameU="AdminInterface" v:lbl="Administrative Interface" v:prompt="" v:type="0" v:format=""
						v:sortKey="Network" v:invis="false" v:ask="false" v:langID="1033" v:cal="0"/>
				<v:cp v:nameU="NumberofPorts" v:lbl="Number of Ports" v:prompt="" v:type="0" v:format="" v:sortKey="Network"
						v:invis="false" v:ask="false" v:langID="1033" v:cal="0"/>
				<v:cp v:nameU="CommunityString" v:lbl="Community String" v:prompt="" v:type="0" v:format="" v:sortKey="Network"
						v:invis="false" v:ask="false" v:langID="1033" v:cal="0"/>
				<v:cp v:nameU="NetworkDescription" v:lbl="Network Description" v:prompt="" v:type="0" v:format=""
						v:sortKey="Network" v:invis="false" v:ask="false" v:langID="1033" v:cal="0"/>
				<v:cp v:nameU="MACAddress" v:lbl="MAC Address" v:prompt="" v:type="0" v:format="" v:sortKey="Network"
						v:invis="false" v:ask="false" v:langID="1033" v:cal="0"/>
				<v:cp v:nameU="CPU" v:lbl="CPU" v:prompt="" v:type="0" v:format="" v:sortKey="Workstation" v:invis="false"
						v:ask="false" v:langID="1033" v:cal="0"/>
				<v:cp v:nameU="Memory" v:lbl="Memory" v:prompt="" v:type="0" v:format="" v:sortKey="Workstation" v:invis="false"
						v:ask="false" v:langID="1033" v:cal="0"/>
				<v:cp v:nameU="OperatingSystem" v:lbl="Operating System" v:prompt="" v:type="0" v:format="" v:sortKey="Workstation"
						v:invis="false" v:ask="false" v:langID="1033" v:cal="0"/>
				<v:cp v:nameU="HardDriveSize" v:lbl="Hard Drive Capacity" v:prompt="" v:type="0" v:format=""
						v:sortKey="Workstation" v:invis="false" v:ask="false" v:langID="1033" v:cal="0"/>
				<v:cp v:nameU="ShapeClass" v:lbl="ShapeClass" v:prompt="" v:type="0" v:format="" v:sortKey="" v:invis="true"
						v:ask="false" v:langID="1033" v:cal="0" v:val="VT4(Connectivity)"/>
				<v:cp v:nameU="ShapeType" v:lbl="ShapeType" v:prompt="" v:type="0" v:format="" v:sortKey="" v:invis="true"
						v:ask="false" v:langID="1033" v:cal="0" v:val="VT4(Conceptual)"/>
				<v:cp v:nameU="SubShapeType" v:lbl="SubShapeType" v:prompt="" v:type="0" v:format="" v:sortKey="" v:invis="true"
						v:ask="false" v:langID="1033" v:cal="0" v:val="VT4(Data)"/>
			</v:custProps>
			<v:userDefs>
				<v:ud v:nameU="visVersion" v:prompt="" v:val="VT0(15):26"/>
				<v:ud v:nameU="ShapeClass" v:prompt="" v:val="VT0(5):26"/>
				<v:ud v:nameU="SolSH" v:prompt="" v:val="VT15({BF0433D9-CD73-4EB5-8390-8653BE590246}):41"/>
				<v:ud v:nameU="visLegendShape" v:prompt="" v:val="VT0(2):26"/>
			</v:userDefs>
			<title>Data.12</title>
			<desc>Telemetry Data</desc>
			<g id="shape164-102" v:mID="164" v:groupContext="shape" transform="translate(30.0164,-25.9192)">
				<title>Sheet.164</title>
				<path d="M46.43 807.66 L37.02 807.66 L37.02 817.07 L46.43 817.07 L46.43 807.66 ZM10.01 807.66 L-0 807.66 L-0 817.66
							 L10.01 817.66 L10.01 807.66 ZM23.23 831.67 L13.01 831.67 L13.01 841.89 L23.23 841.89 L23.23 831.67 Z"
						class="st21"/>
			</g>
			<g id="shape165-104" v:mID="165" v:groupContext="shape" transform="translate(0,-0.583677)">
				<title>Sheet.165</title>
				<path d="M24.01 825.34 L10.35 825.34 L10.35 839 L24.01 839 L24.01 825.34 ZM40.02 812.34 L27.02 812.34 L27.02 825.34
							 L40.02 825.34 L40.02 812.34 ZM27.02 782.32 L0 782.32 L0 809.34 L27.02 809.34 L27.02 782.32 ZM56.73 766.61
							 L44.02 766.61 L44.02 779.32 L56.73 779.32 L56.73 766.61 ZM64.19 782.32 L43.02 782.32 L43.02 803.49 L64.19
							 803.49 L64.19 782.32 ZM65.57 819.34 L43.02 819.34 L43.02 841.89 L65.57 841.89 L65.57 819.34 Z"
						class="st21"/>
			</g>
			<g id="shape163-106" v:mID="163" v:groupContext="groupContent">
				<v:textBlock v:margins="rect(4,4,4,4)" v:tabSpace="42.5197"/>
				<v:textRect cx="38.2238" cy="853.092" width="86.07" height="22.4037"/>
				<text x="0.55" y="856.69" class="st7" v:langID="1031"><v:paragraph v:horizAlign="1"/><v:tabList/>Telemetry Data</text>			</g>
		</g>
		<g id="shape170-108" v:mID="170" v:groupContext="shape" transform="translate(81.3543,-658.572)">
			<title>Data Flow</title>
			<v:userDefs>
				<v:ud v:nameU="UMLShapeType" v:val="VT0(97):26"/>
				<v:ud v:nameU="UMLObjectGUID"/>
				<v:ud v:nameU="UMLPresOptions"/>
				<v:ud v:nameU="UMLError" v:val="VT0(0):5"/>
				<v:ud v:nameU="visVersion" v:val="VT0(15):26"/>
				<v:ud v:nameU="visDescription" v:val="VT4(Represents a packet of data that is being sent to or from a process.)"/>
			</v:userDefs>
			<path d="M7.09 841.89 L7.09 903.27" class="st22"/>
		</g>
		<g id="shape174-114" v:mID="174" v:groupContext="shape" v:layerMember="4" transform="translate(106.299,-522.063)">
			<title>Center to center 2</title>
			<v:userDefs>
				<v:ud v:nameU="ScaleFactor" v:val="VT0(1):26"/>
				<v:ud v:nameU="visVersion" v:val="VT0(15):26"/>
			</v:userDefs>
			<path d="M33.89 801.87 A97.0886 97.0886 0 0 1 139.26 799.65 L139.56 799.85" class="st24"/>
		</g>
		<g id="shape175-120" v:mID="175" v:groupContext="shape" transform="translate(287.822,-586.36)">
			<title>Data Flow.175</title>
			<v:userDefs>
				<v:ud v:nameU="UMLShapeType" v:val="VT0(97):26"/>
				<v:ud v:nameU="UMLObjectGUID"/>
				<v:ud v:nameU="UMLPresOptions"/>
				<v:ud v:nameU="UMLError" v:val="VT0(0):5"/>
				<v:ud v:nameU="visVersion" v:val="VT0(15):26"/>
				<v:ud v:nameU="visDescription" v:val="VT4(Represents a packet of data that is being sent to or from a process.)"/>
			</v:userDefs>
			<path d="M7.09 841.89 L7.09 787.11" class="st22"/>
		</g>
	</g>
</svg>
